# xmcd
#
# Track frame offsets: 
#        150
#        11807
#        24720
#        38889
#        50546
#        61010
#        72520
#        85410
#        98405
#        107859
#        119009
#        129098
#        138092
#        150202
#        161237
#        172178
#        181626
#        197077
#        210515
#        222786
#        232609
#        252969
#        265007
#        276428
#        287764
#        299489
#        313351
#        326495
#
# Disc length: 4551 seconds
#
# Revision: 0
# Processed by: cddbd v1.5.2PL0 Copyright (c) Steve Scherf et al.
# Submitted via: ExactAudioCopy v0.95b3
#
DISCID=9711c51c
DTITLE=Cliff Richard  - They Said It Wouldn't Last - Rare EP tracks 19
DTITLE=61-1991 - Disc 3
DYEAR=1900
DGENRE=
TTITLE0=Dream
TTITLE1=I'll See You In My Dreams
TTITLE2=Carnival
TTITLE3=Some Of These Days
TTITLE4=For You For Me
TTITLE5=Your Eyes Tell On You
TTITLE6=I Wonder
TTITLE7=I'm In The Mood For Love
TTITLE8=Watch What You Do With My Baby
TTITLE9=Perhaps Perhaps Perhaps
TTITLE10=Frenesi
TTITLE11=Why Don't They Understand
TTITLE12=I'm Afraid To Go Home
TTITLE13=Where Is Your Heart
TTITLE14=Lies And Kisses
TTITLE15=Sweet And Gentle
TTITLE16=The Night
TTITLE17=Look Before You Love
TTITLE18=La La La La La
TTITLE19=Never Knew What Love Could Do
TTITLE20=The Twelve Days Of Christmas
TTITLE21=The Holly And The Ivy
TTITLE22=Wonderful To Be Young - Bonus track
TTITLE23=It Came Upon A Midnight Clear - Bonus track
TTITLE24=Sooner Or Later - Bonus track
TTITLE25=A Spoonful Of Sugar - Bonus track
TTITLE26=Zip-A-Dee-Do-Dah - Bonus track
TTITLE27=Chim Chim Cheree - Bonus track
EXTD=
EXTT0=
EXTT1=
EXTT2=
EXTT3=
EXTT4=
EXTT5=
EXTT6=
EXTT7=
EXTT8=
EXTT9=
EXTT10=
EXTT11=
EXTT12=
EXTT13=
EXTT14=
EXTT15=
EXTT16=
EXTT17=
EXTT18=
EXTT19=
EXTT20=
EXTT21=
EXTT22=
EXTT23=
EXTT24=
EXTT25=
EXTT26=
EXTT27=
PLAYORDER=
